<svg id="Layer_2" data-name="Layer 2" xmlns="http://www.w3.org/2000/svg" viewBox="0 0 612 576"><defs><style>.cls-1{fill:#ece83a;}.cls-1,.cls-2{stroke:#231f20;stroke-miterlimit:10;stroke-width:10px;}.cls-2{fill:#fff;}.cls-3{fill:#231f20;}</style></defs><circle class="cls-1" cx="307.53" cy="288" r="274.72"/><rect class="cls-2" x="117.65" y="98.12" width="379.77" height="379.77" rx="62.95"/><line class="cls-2" x1="120.79" y1="182.19" x2="497.42" y2="182.19"/><line class="cls-2" x1="396.53" y1="98.12" x2="396.53" y2="477.88"/><path class="cls-3" d="M273,134.39l-10,8-6.82,5.44c-1.06.84-2.24,1.63-3.22,2.56-2.88,2.76-1.86,8.49,1.23,10.58,3.78,2.54,9,.66,13.08-.1,3.22-.59,6.46-1.12,9.67-1.78a9.56,9.56,0,0,0,1.94-.63,1.64,1.64,0,0,0,.39-.14s-1.18.25-.76.24c.06,0,.18-.08.24-.06a2.87,2.87,0,0,0,.5-.07s-1.22-.06-.77,0c.23,0,.58.18-.22-.08a3.6,3.6,0,0,1-2.24-1.7,3.87,3.87,0,0,1-.7-2.07,3.2,3.2,0,0,1,0,.44c0,.55.25-1,0-.41s-.24,1-.39,1.52c0,.12-.44,1.06-.23.65a1.17,1.17,0,0,0-.05.11c0,.09-.1.19-.16.28a2.4,2.4,0,0,0-.19.29c-.42.71.52-.65.4-.52s-.43.53-.64.78c-1.38,1.61-2.9,3.11-4.4,4.61-5.28,5.29-10.66,10.48-15.92,15.79Q242,189.94,230.9,202.34c-9.29,10.42-18.2,21.18-26.63,32.3a468.12,468.12,0,0,0-27.6,40.4,397,397,0,0,0-24.29,46.6,352.84,352.84,0,0,0-18.66,53.76,267.85,267.85,0,0,0-6.72,34c-1,7.89-1.44,15.88-.24,23.78a24.65,24.65,0,0,0,4.41,11.42,12.17,12.17,0,0,0,11.33,4.7c5.55-.7,10.57-4.44,14.75-7.87a102.11,102.11,0,0,0,9.25-8.76,18.65,18.65,0,0,0,2.55-3.07c3-4.93,5.93-9.9,8.85-14.87q8.39-14.28,16.42-28.75c6.05-10.93,12-22,17.46-33.16,4.61-9.4,9.15-19,12.34-29,1.82-5.7,4.53-15.24-1.62-19.41-1.88-1.27-4-1.73-6-.17-.61.49-1.18,1.05-1.74,1.58a63.33,63.33,0,0,0-7.92,8.69,21.31,21.31,0,0,0-1.35,2c-.05.09-.53.88-.47,1s.71-.78.56-.64a6.45,6.45,0,0,0-.63.65L201.56,321l-24.16,24.9-5.49,5.66a5.19,5.19,0,0,0,.1,6.83c1.56,1.72,4.4,2.67,6.26.76l16.25-16.74L206,330.6c2-2,4.05-4,5.9-6.09a31.78,31.78,0,0,0,2.1-3.41c.22-.32.89-1.13.28-.41.34-.39.65-.81,1-1.2.65-.76,1.32-1.51,2-2.23,1.78-1.89,3.64-3.7,5.59-5.4l-4.28.72a2.56,2.56,0,0,1,.43.17c.42.21-1.32-.87-.6-.32.53.41-1.11-1.17-.56-.51s-.86-1.37-.42-.65a1.52,1.52,0,0,1,.21.45c-.1.1-.45-1.65-.35-.93,0,.1.06.2.08.3a2.13,2.13,0,0,0,.1.58c.07.12-.09-1.48-.1-.85,0,.12,0,.25,0,.38,0,.5,0,1,0,1.51,0,.28-.14,1.31,0,.27s0,.11-.06.39a38.87,38.87,0,0,1-.92,4.12c-.44,1.61-1,3.19-1.49,4.76-.31.9-.63,1.78-1,2.67-.17.45-.35.89-.51,1.34,0,0,.45-1.14.2-.5l-.12.29c-.1.27-.21.53-.31.8-1.69,4.23-3.54,8.39-5.46,12.52-4.46,9.58-9.31,19-14.3,28.3S183.26,386.25,178,395.44q-6,10.5-12.19,20.89c-1.19,2-2.39,4-3.59,6l-.94,1.55-.22.36,0,.07h0c.24-.81.5-.65.06-.23-.22.21-.42.44-.62.66a111,111,0,0,1-8.17,7.92c-1.15,1-2.33,1.95-3.55,2.86-.49.37-.67.63-.09.08a6.78,6.78,0,0,1-.78.54c-.53.36-1.06.71-1.61,1a26,26,0,0,1-2.85,1.52c-.42.19-.84.37-1.27.53a4,4,0,0,0-.61.21c.44-.27,1.06-.29.25-.09a16.61,16.61,0,0,1-2.24.37c-.92.1,1.19.12,0,0l-1-.13c-1-.15,1.11.46.16,0-.27-.12-.56-.26-.84-.37-.66-.26,1.05.72.58.33-.1-.09-.24-.15-.35-.24s-.46-.43-.7-.58c.15.1,1,1.11.52.48-.09-.11-.2-.21-.29-.33s-.39-.51-.59-.76c-.49-.62.67,1.16.41.62-.06-.12-.15-.23-.21-.35-.17-.32-.35-.65-.51-1s-.27-.62-.4-.93c-.32-.72.21.57.25.7a5.31,5.31,0,0,0-.2-.56c-.23-.73-.43-1.46-.6-2.2s-.33-1.56-.46-2.35c-.06-.4-.11-.79-.16-1.19-.11-.72.14,1.36.06.49,0-.23-.05-.46-.08-.69A74.2,74.2,0,0,1,135,420.5c.07-1.56.18-3.12.31-4.68.06-.69.13-1.38.2-2.07,0-.3.07-.61.1-.92.13-1.21-.13,1,0,.17a264.1,264.1,0,0,1,4.86-26.34q2.82-12.26,6.59-24.26,1.83-5.88,3.89-11.7c.65-1.85,1.32-3.69,2-5.54.34-.91.69-1.83,1-2.74l.3-.78s.26-.68.09-.23.12-.33.16-.43c.13-.33.26-.65.38-1a380,380,0,0,1,19.8-42.29,431.79,431.79,0,0,1,22.78-37.17q5.78-8.45,11.9-16.63l.72-1-.17.23.41-.55,1.54-2q1.47-1.94,3-3.85,2.91-3.74,5.9-7.41,10.78-13.31,22.39-25.9,9.3-10.11,19-19.81c4.51-4.52,9.09-9,13.61-13.47,2.22-2.22,5.21-4.69,6.63-7.56,1.77-3.57,2.69-8.15.08-11.54-2-2.58-5.22-2.74-8-1.6-1.37.56,1.05-.15.32-.06-.93.11-1.87.34-2.8.51L262,151.78l-2.39.44-1.06.19-.79.13c-.42.05-.89-.15-.1.05-.7-.17-.4-.08.15.12-.64-.23.56.33.57.33a15.39,15.39,0,0,0,1.31,1.57,13.23,13.23,0,0,0,.4,1.39c.14.75.06.57.06.34,0-.55-.14,1.37,0,.49s-.46.83-.13.33c.13-.22-1,.85-.55.75s.84-.67,1.11-.88l11.28-9,7.6-6c2-1.57,1.4-5.18-.11-6.84-1.74-1.92-4.18-2.41-6.26-.76Z"/><path class="cls-3" d="M176,113.12l-2.13,15.11-4.39,31.14-3.71,26.31c-.22,1.56-.51,3.13-.66,4.7a9.2,9.2,0,0,0,.17,3c.9,3.69,5.46,5.18,8.84,5.09,4-.11,7.32-3.31,9.55-6.44l5.74-8,18.21-25.53c4-5.67,8.18-11.28,12.14-17l.35-.53a19.14,19.14,0,0,1,1.15-2.41c.16-.19.36-.34.52-.54a11.54,11.54,0,0,0,2-4c.95-3.3,1-7.12-.67-10.19-2.76-5.11-10.15-6.36-15.33-5.17-5.37,1.22-10.34,4.33-14.64,7.68L171.52,143l-2,1.53c-.61.48-.3,1.4,0,1.89a6,6,0,0,0,2.62,1.8c1.9.72,4.61,1.3,6.37-.07l18.81-14.63c2.42-1.88,4.79-3.89,7.36-5.57a47.92,47.92,0,0,1,5-2.86c.66-.32,1.33-.63,2-.9l1-.38.48-.16c-.35.13-.55.15-.07,0s1.06-.24,1.59-.35c1-.19-.73,0-.1,0,.26,0,.54,0,.8,0s-1.34-.18-.39,0-1.28-.27-.62-.13l.29.07-.86-.28c.86.28-.36-.19-.41-.21.18.08.81.51.06,0s-.13-.09,0,0c.46.44-.53-.68-.23-.25.12.18.28.33.4.5s.16.26.25.38c.35.51,0,0,0-.09a6.54,6.54,0,0,0,.4,1.06,10.47,10.47,0,0,1,.4,2.21c0,.17,0,.34,0,.51s0-.54,0-.22v.29c0,.42,0,.83-.07,1.25a15.39,15.39,0,0,1-1,4.32,8.75,8.75,0,0,1-.37.83c-.07.13-.15.26-.22.4,0-.08.33-.47,0-.06a13,13,0,0,0-1.52,2,15.7,15.7,0,0,1-1.08,2.3l-1.78,2.51-6.55,9.18L184.2,175,177,185.11c-1.1,1.55-2.13,3.2-3.32,4.67a17.77,17.77,0,0,1-2.76,2.58c-.15.13-.79.59-.66.51s-.52.28-.65.34c-.54.25-.49.19.06,0a1.7,1.7,0,0,1-.31.06,6.92,6.92,0,0,1,2.79.18,7.71,7.71,0,0,1,2.6,1.2s.64.82.28.22c0,0,.22.72.11.2,0-.19-.13-.38-.18-.58s-.1-.59-.14-.88a1.58,1.58,0,0,0,0-.44s0,.64,0,.15c.08-1.08.26-2.14.41-3.21l3.23-22.91,4.35-30.9,2.79-19.76.14-1c.28-2-2.75-3.18-4.26-3.54-1.11-.26-5.15-.93-5.43,1.05Z"/><path class="cls-3" d="M238.18,134.63,217.08,149c-.62.42-1.8.94-2.18,1.64A16.64,16.64,0,0,0,214,154l-4.25,15-3.18,11.29c-.39,1.38,2.63,2.69,3.44,3.06a13.44,13.44,0,0,0,3,1,4.07,4.07,0,0,0,2.49,0L242.9,170l3.9-2c1.57-.82-2-2.85-2.51-3.1a14.18,14.18,0,0,0-3.63-1.3,4.11,4.11,0,0,0-2.48,0L210.76,178l-3.9,2.05,8.95,4.07,7-24.7c.42-1.49.95-3,1.27-4.52,0-.07.14-.33.11-.39s-.22.2-.26.2c.26,0,.76-.52,1-.65l11.71-8,10.23-7c1.44-1-1.87-2.79-2.51-3.1a13.81,13.81,0,0,0-3.63-1.3c-.69-.13-1.85-.43-2.48,0Z"/><path class="cls-3" d="M238.84,152.92,216.76,165l-3.11,1.71c-1.29.7-4.09,2.91-3.05,4.69s4.38.33,5.59-.33L238.26,159l3.12-1.71c1.28-.71,4.09-2.92,3.05-4.69s-4.38-.33-5.59.33Z"/><path class="cls-3" d="M292.34,143.14c-1.62,4.36-2.68,8.91-4.11,13.33L283,172.65l-1.54,4.74c-.24.76,4.73.29,5.1.23a17.88,17.88,0,0,0,3.45-.83c.48-.18,1.17-.37,1.34-.91,2.71-8.37,5.67-16.71,8-25.18.85-3,1.72-6.11,2.83-9.07.26-.71-4.74-.28-5.1-.23a17.88,17.88,0,0,0-3.45.83c-.49.18-1.14.38-1.34.91Z"/><path class="cls-3" d="M324.78,136.51,307.2,154.6c-3.8,3.91-7.82,7.69-11.08,12.09-1.85,2.49-5.75,7.62-2.16,10.34,2.24,1.7,5.65,1.09,8.12.35a58.46,58.46,0,0,0,8.43-3.49c7.33-3.54,14.63-7.2,22.08-10.49a21.68,21.68,0,0,0,5.73-3.41c1.3-1.17,2.76-2.77,2.36-4.69a4.7,4.7,0,0,0-3.38-3.15c-4.11-1.43-8.33-.56-12.06,1.41l-6.7,3.53-1.62.85c-1.56.82-3.35,2.74-2,4.54s4.24,1.56,5.91.68c3.11-1.64,6.18-3.34,9.32-4.91a5.8,5.8,0,0,1,.8-.37c-.8.26,0,0,.12,0-1-.12,1.09.06.3,0,.29,0,.58.1.87.13-.05,0-.66-.21-.28-.06a4,4,0,0,0,.49.15c.56.17.11,0-.18-.13.69.42-.26-.44-.06-.12,0,0-.33-.85-.22-.45s-.08.42,0-.51c0,.47.33-.88.07-.33.23-.5.52-.58,0-.16s.84-.66.1-.13c-.2.15-.4.31-.61.45s-.87.55-.18.14-.19.1-.36.2c-.7.38-1.42.74-2.15,1.07-7.2,3.2-14.27,6.73-21.38,10.15-1.77.85-3.54,1.72-5.36,2.46l-.56.23c-.74.3.25-.1.34-.12-.32.09-.64.23-1,.33-.53.17-1.07.31-1.62.45-1,.24,1-.07.37-.06a5.09,5.09,0,0,0-.56,0c-.58.1,1.24.12.59,0s1.14.36.5.12c-.35-.13,1,.58.5.24.11.08.69.79.4.34,0,.07.39.95.24.47s-.11.73,0,.43c0-.06.12-.72.11-.73s-.35,1-.1.38c.07-.16.12-.33.19-.49.3-.67.69-1.28,1.05-1.91.23-.39-.57.83-.1.17l.34-.51c.24-.34.49-.68.74-1a114.11,114.11,0,0,1,9.85-10.78l18.26-18.79.41-.41a2.59,2.59,0,0,0-1.15-4.28,6,6,0,0,0-6.15,1.64Z"/><path class="cls-3" d="M381.35,151.41q-3.69,4-7.35,8-9.63,10.49-19.19,21-13.28,14.64-26.4,29.43-14.81,16.66-29.36,33.55c-9.34,10.87-18.58,21.81-27.61,32.94-7.41,9.13-14.72,18.37-21.53,28-3.77,5.32-7.69,10.76-10.1,16.85a52,52,0,0,0-3.76,13.19c-.22,2-.28,4.29.69,6.07,1.95,3.54,7.19,4.22,10.79,3.78,3.85-.47,7.38-2.4,10.59-4.49a133.35,133.35,0,0,0,15.95-12.79c7.64-6.9,14.72-14.37,22.18-21.44.36-.35.72-.69,1.1-1l.61-.52.35-.29c.27-.23-.6.47-.1.08,1.13-.87,2.27-1.72,3.43-2.54a104.72,104.72,0,0,1,9-5.57q2.44-1.35,4.95-2.57c.87-.42,1.73-.82,2.61-1.2l1.22-.53c.73-.32-.75.29,0,0l.73-.29c1.64-.64,3.31-1.22,5-1.7a20.58,20.58,0,0,1,2.36-.58s-1.22.22-.31.07l.58-.1c.38-.06.76-.12,1.14-.16s.7-.05,1-.09c-1.5.19-.7,0,0,0h.51c.86,0-.62,0-.76-.05a5.9,5.9,0,0,0,1,.11c.74.06-1.31-.33-.79-.14.14.05.3.06.45.1,1,.29-1.33-.51-.2-.06s-.56-.39-.07-.06a4.62,4.62,0,0,0,.72.45c-.15.06-.81-.7-.3-.22a3.2,3.2,0,0,0,.27.25c.23.21.41.45.62.67s-.35-.65-.14-.19a3.7,3.7,0,0,0,.21.33c.16.29.32.57.45.87a10.5,10.5,0,0,1,.59,1.88c.07.29-.05-.48,0,.09,0,.19.05.39.07.58,0,.41.07.83.08,1.24.11,4.73-1.39,9.5-3,13.89a154.86,154.86,0,0,1-10.58,22.13c-2.89,5.19-5.84,10.38-9.22,15.25-4.39,6.33-9.46,12.21-14.36,18.13-7.72,9.32-15.53,18.55-23.33,27.79-8.57,10.17-17.14,20.33-25.62,30.58-7.22,8.73-14.42,17.5-21.28,26.53-2.35,3.11-4.69,6.24-6.84,9.49a25.4,25.4,0,0,0-3.45,6.35c-1.19,4,5.38,4.51,7.89,4.32,1.38-.11,3.66-1.2,2.14-2.74s-4.6-1.77-6.7-1.6c2-.15,5.43.05,6.44,1.93a1.19,1.19,0,0,1-.08-.2c.37.89,0,.51.09.22s.1-.57.19-.84.14-.33.19-.5c.13-.42-.29.55.08-.18a61.77,61.77,0,0,1,4.41-7c5.61-8,11.78-15.58,17.93-23.15,8.13-10,16.41-19.91,24.71-29.78s16.51-19.56,24.74-29.37c6.2-7.41,12.44-14.8,18.38-22.41,6.44-8.25,11.62-17.37,16.46-26.64a125,125,0,0,0,8.87-20.44c1.22-3.91,2.29-8.21,1.71-12.33a9.75,9.75,0,0,0-4.75-7.41c-3.73-2.23-8.44-2.56-12.67-2.19-7.46.66-14.71,3.95-21.24,7.43a82.28,82.28,0,0,0-16.15,10.79c-6.51,5.83-12.42,12.36-18.81,18.35a162.51,162.51,0,0,1-16.72,14.18,52,52,0,0,1-5.8,3.66c-.37.19-.75.39-1.14.57l-.5.22c-.82.39.52-.16.08,0-.62.18-1.29.36-1.89.59,1.16-.44.77,0,.15-.06s1.51,0,.37,0c-.51,0,1.67.14.91.05s1.38.28.92.17c-.81-.18,1.41.52.52.16,0,0,1.2.61.66.29-.15-.08-.47-.32.13.12s.07.05-.07-.12c-.39-.51.29.67.09.1-.07-.17-.2-.33-.27-.51a7,7,0,0,1-.37-1.2c.18.68,0,.24,0-.12s0-.49,0-.73a17.38,17.38,0,0,1,.22-3.22,43.55,43.55,0,0,1,1.71-7q.94-3,2.12-5.86c.23-.58.46-1.17.72-1.74l.05-.12c-.2.42.18-.3.25-.43.21-.38.42-.75.64-1.12.46-.8.93-1.59,1.42-2.38A273.63,273.63,0,0,1,270.29,292c8.21-10.58,16.73-20.91,25.35-31.15q14.22-16.91,28.82-33.49,14-15.94,28.16-31.71,11.4-12.69,22.91-25.29Q382.25,163,389,155.66c.59-.64,1.19-1.28,1.78-1.93,1.41-1.51-2.23-2.87-3.14-3.08-1.81-.41-4.84-.79-6.29.76Z"/><path class="cls-3" d="M343.15,178.47l5.65-8,1.41-2c.12-.15.89-1.22.39-.56s.34-.46.49-.69.48-.74.72-1.12c.61-.93,1.21-1.88,1.8-2.82.4-.63.77-1.29,1.17-1.92.19-.3.4-.59.6-.88l.36-.5c.07-.1.14-.19.2-.29.32-.44-.37.5-.13.18,1.51-2,3.05-4,4.66-5.9,3.15-3.78,6.42-7.55,10.45-10.4-.08.05-.83.36-.19.12.15-.06.32-.1.46-.17.44-.22-1.19.16-.54.12a7.86,7.86,0,0,1-3.71-.8,10.83,10.83,0,0,1-1.46-.87c-1.13-.91-.92-.91-.66-.6.05.06-.67-1-.44-.61s-.32.08-.16-.51a5.63,5.63,0,0,0,.08,1c0,.1,0,.19,0,.29,0,.28.13-.78,0-.25-.05.28-.09.55-.15.83a20.15,20.15,0,0,1-.53,2c-.6,2-1.35,3.88-2.13,5.78-1.15,2.77-2.39,5.5-3.68,8.22a60.33,60.33,0,0,0-3.05,6.71l-3.55,10.69-.32,1c-.65,2,2.25,3.67,3.72,4.21a7.7,7.7,0,0,0,3.57.6c.73-.11,1.75-.32,2-1.15l3.28-9.88a36,36,0,0,1,1.75-4.56c1.56-3.18,3.08-6.39,4.51-9.64,1.52-3.49,3.26-7.2,3.85-11a5.48,5.48,0,0,0-.25-3.51c-1.32-2.65-5.13-4-7.92-3.82-2.2.17-4.06,1.69-5.64,3.1a67.9,67.9,0,0,0-5.7,5.93c-1.87,2.13-3.68,4.32-5.41,6.57a46.07,46.07,0,0,0-3.48,4.85c-.71,1.22-1.48,2.41-2.25,3.6-.45.71-1,1.4-1.38,2.13,0,.06,1-1.38-.07.1l-.06.09c-.12.15-.23.31-.34.47L334.43,174l-.59.84c-.44.62.36,1.81.7,2.21a7.74,7.74,0,0,0,3,2c1.77.65,4.33,1.24,5.59-.54Z"/><path class="cls-3" d="M410.25,187.78l-4.92,34.87-2.77,19.67c-.16,1.13-.36,2.27-.48,3.41a7.51,7.51,0,0,0,2.55,6c1.45,1.43,3.58,2.85,5.73,2.36a8.77,8.77,0,0,0,3.3-1.9,46.46,46.46,0,0,0,8.46-9.09l12.07-16.92,3.85-5.4c2.16-3,4.1-6.19,6.15-9.29.28-.42.65-.72.94-1.12a9.91,9.91,0,0,0,1.48-3.26,12.49,12.49,0,0,0-1-9.12c-2.34-4.27-7-7.17-11.86-6.16-3.84.8-7.54,3.22-10.6,5.59L406.9,210.08l-1.43,1.12c-.61.47-.35,1.69-.17,2.24a8.14,8.14,0,0,0,2,3c1.16,1.09,3.6,3.09,5.25,1.81l14.08-10.95c1.88-1.47,3.72-3,5.72-4.32a24.56,24.56,0,0,1,6.26-3.16,11.91,11.91,0,0,1,1.31-.32c.2,0,.4-.05.6-.1.63-.14-.63,0,0,0,.33,0,.67,0,1,.06.82,0-.85-.29.1,0,.61.22-1.06-.52-.49-.21s-1.12-.79-.58-.39-1.12-1-.62-.54-1-1.17-.54-.61c.56.72-.69-1.16-.26-.37.3.55-.4-1.11-.23-.5.05.16.12.34.18.5.29.71-.11-1,0,0,0,.28.08.56.1.85s0,.48,0,.72,0,.29,0,.44c0,.49.11-.79,0,0a13.7,13.7,0,0,1-.79,3.21c-.09.21-.23.43-.3.65s.15-.27.16-.29-.1.18-.16.27c-.22.27-.45.5-.67.75a8.11,8.11,0,0,0-.79,1.21c-.73,1.23-1.5,2.43-2.3,3.62-1.73,2.59-3.55,5.13-5.36,7.67l-12.27,17.2a76.68,76.68,0,0,1-5,6.3,45.08,45.08,0,0,1-5,5,18.78,18.78,0,0,1-1.64,1.17c.46-.3.31-.13-.05,0a5.45,5.45,0,0,0-.61.2c-.44.24.87,0,.29,0-.31,0-.61-.25.68.16-.33-.11-.48-.33.85.39a9.6,9.6,0,0,1,2.59,2.28,13.72,13.72,0,0,1,.94,1.64c-.17-.51.19,1.22.11.42a2,2,0,0,0,0-.35c.18.46-.11,1.09,0,.25.09-.61.17-1.21.25-1.82l2.47-17.46,5.28-37.5.1-.71c.31-2.16-1.53-4.35-3.17-5.53-.78-.57-4.27-2.54-4.57-.36Z"/><path class="cls-3" d="M433.47,240.4l-19.06,13c-1.24.85-2.31,1.41-2.85,3-.32,1-.55,2-.82,2.92L406.9,273,404,283.1c-1.17,4.17,4.3,6.25,7.43,4.61l24.7-12.95,3.49-1.83c2-1.07,3.26-3.79,1.69-5.78a5.61,5.61,0,0,0-6.87-1.38l-24.7,13-3.49,1.83,7.43,4.61,6.6-23.38.95-3.36L420,260.3,438.09,248l2.56-1.74c2-1.37,1.7-4.59-.11-5.94a5.84,5.84,0,0,0-7.07.13Z"/><path class="cls-3" d="M432.18,256.94l-19.84,10.89-2.83,1.55c-1.71.94-3.23,3.15-1.45,4.85A6.3,6.3,0,0,0,415,275l19.84-10.89,2.83-1.55c1.72-.94,3.24-3.15,1.46-4.86a6.33,6.33,0,0,0-6.92-.75Z"/><path class="cls-3" d="M405.73,290.72,405,305l-.37,7.36c0,1-.27,2-.41,3a9.8,9.8,0,0,0-.12,2.91c.31,2,2.43,2.46,4.18,2.79,2.48.48,5.75,1,7.82-.86a33.4,33.4,0,0,0,2.47-2.85c3.19-3.55,6.69-6.88,10-10.31l10.31-10.62c1.05-1.08-2.76-1.86-3.26-2a17.74,17.74,0,0,0-3.84-.38c-.64,0-1.89-.07-2.37.42l-19.26,19.84c-1.25,1.29-2.27,2.85-3.63,4-.2.18-.45.31-.64.49s-.28-.1.12,0l-.05,0q-3.93,1.15,7.93,1.07c.82.49.14.23.17,0,0,.18,0-.08-.06-.34a11.54,11.54,0,0,1,.09-2.69c.12-.95.38-1.87.43-2.82l.32-6.56.77-15.42c.07-1.32-4-1.78-4.79-1.88-.63-.08-5.06-.67-5.12.56Z"/><path class="cls-3" d="M404.58,361.05c-1,7.63-2.23,15.27-3,22.92,0,.39.25-1.64.13-1,0,.24-.08.48-.11.72-.19,1.19-.35,2.4-.44,3.61-.19,2.92.07,6,2,8.39a6.76,6.76,0,0,0,6,2.36,6.93,6.93,0,0,0,2.3-.72c.54-.28,2.22-1.08,2.57-1.74-.12.22-.58.33-.17.11.24-.12.47-.26.7-.39L417,394,429.49,387a4.34,4.34,0,0,0,1.87-6.09c-1.2-2-4.25-3.74-6.59-2.44l-10.08,5.62L409.47,387a18.9,18.9,0,0,0-2.51,1.53,6.48,6.48,0,0,0-.71.56c-.38.38.93-.39.45-.26-.11,0-.21.15-.33.17-.9.11,1.19-.23.41-.11a4.36,4.36,0,0,1,2.81.71c-.54-.33,1.14,1.16.6.49-.1-.12.86,1.24.55.72-.21-.35.08-.55.29.77a5.26,5.26,0,0,0-.29-1.2c.42.91.11,1,.07.32,0-.25,0-.49,0-.73,0-.52,0-1,0-1.56s.06-.85.11-1.28.23-1.74.07-.66,0,.12,0-.14c.07-.44.14-.88.2-1.33.48-3.58.94-7.16,1.41-10.74l1.61-12.22c.33-2.51-2.5-5-4.82-5.12a4.36,4.36,0,0,0-4.87,4.11Z"/><path class="cls-3" d="M404.12,409.1c-2.59,6.22-4.67,15.09.37,20.67a31,31,0,0,0,7.32,6.13,6.24,6.24,0,0,0,3.39.89c2.62-.11,5-1.73,6.82-3.46a32.22,32.22,0,0,0,9.54-20.94c.17-3.06-.18-6.32-2-8.89a28.09,28.09,0,0,0-6.51-6.13,8.82,8.82,0,0,0-4.39-2.08c-2.92-.22-5.57,1.53-7.62,3.44a30.72,30.72,0,0,0-6.93,10.37c-.13.31.77,1.2.84,1.27a26.84,26.84,0,0,0,2.56,2.44c.27.23,4,3.21,4.17,2.83,2.17-5.05,5.68-10.82,10.94-13.14a7.46,7.46,0,0,1,2.58-.67,5.16,5.16,0,0,1,1.3.11c.22.05.42.13.63.19,2.05.56-3.8-2.32-4.72-4.14a14.25,14.25,0,0,1,1.61,7.1,33,33,0,0,1-6.87,18.69c-2.55,3.33-6.65,7.38-11.22,6.15l-.2-.08a8.35,8.35,0,0,1,4.72,4c.24.28.26.28,0,0,.06-.08,0-.16-.13-.24a9.3,9.3,0,0,1-.77-1.84,15.16,15.16,0,0,1-.56-4.44,31.14,31.14,0,0,1,2.65-11.71c.13-.32-.77-1.2-.84-1.28a28.14,28.14,0,0,0-2.56-2.44C408,411.69,404.28,408.72,404.12,409.1Z"/><path class="cls-3" d="M429.46,312.86l-19,13c-.47.32-1.35.7-1.66,1.18a3.83,3.83,0,0,0-.29,1l-.57,2.05-3.8,13.47-2.87,10.15c-.18.64,4,2.09,4.49,2.27,1.1.41,2.22.81,3.36,1.11.41.11,1.1.39,1.5.17l24.7-13,3.49-1.83c.18-.1-1.5-1-1.24-.86a30,30,0,0,0-3.25-1.4,33.93,33.93,0,0,0-3.36-1.12c-.41-.1-1.1-.38-1.5-.17l-24.7,13-3.49,1.83,9.35,3.55,6.3-22.32c.37-1.32.68-2.68,1.12-4,.19-.57.45-.65,1-1l10.48-7.16,9.3-6.34c.18-.12-1.48-1-1.24-.87a32.14,32.14,0,0,0-3.25-1.4c-1.11-.41-2.22-.81-3.36-1.11-.37-.09-1.15-.41-1.5-.17Z"/><path class="cls-3" d="M428.44,329.09,408.6,340l-2.83,1.55a2.11,2.11,0,0,0,0,4,7.83,7.83,0,0,0,7.07,0l19.84-10.89,2.84-1.55a2.1,2.1,0,0,0,0-4,7.83,7.83,0,0,0-7.07,0Z"/><path class="cls-3" d="M410.88,465.83l4.48-12,3.5-9.36a70.8,70.8,0,0,1,2.58-6.91c.07-.14-.27.17,0,.11.1,0,.26-.2.34-.26l.22-.16c.48-.36-.26.18.09-.07,1.2-.84,2.42-1.65,3.68-2.38.69-.39,1.39-.74,2.09-1.11s-.61.24.12-.06l.54-.22.54-.21c.64-.27-1,.25.08,0-1.37.36-.85.2-.55.14-2.4.51.86,0-1.63.26.35,0-2.14,0-1.29.06,0,0-.79-.07-.28,0,.14,0,.57.22.1,0a2.53,2.53,0,0,1,.37.18,2.81,2.81,0,0,1,.7.58,3.55,3.55,0,0,1,.44,2.71,15.28,15.28,0,0,1-1.38,5.17,20.42,20.42,0,0,1-6.37,7.47,28.67,28.67,0,0,1-2.59,1.63c-.56.31-1.13.61-1.71.89l-.55.26c.45-.21-.63.27-.73.31-.63.26-1.26.5-1.9.73-.08,0-1.19.4-.38.14l-1.06.33-1.1.31c-.3.09-1.15.3-.37.11-.95.23-1.9.44-2.86.63-.43.09-4.23.93-3.24,1.84.46.43,1.86.29,2.37.27a25.94,25.94,0,0,0,3.82-.5c9.1-1.83,20-5.23,25.29-13.6a17.43,17.43,0,0,0,2.52-6.59,8,8,0,0,0,.13-2.85c-.36-1.46-2-2.26-3.32-2.48a23.23,23.23,0,0,0-10.12,1.13,35.47,35.47,0,0,0-10.29,5.37,4.22,4.22,0,0,0-1.62,1.45c-.38.82-.64,1.71-1,2.56l-3.83,10.24L401,467.41c-.29.78,4.74.32,5.1.26a16.82,16.82,0,0,0,3.44-.86c.52-.21,1.12-.42,1.33-1Z"/><path class="cls-3" d="M449.94,171.68c-6.24-4.6-11.62-10.72-16.31-16.82a110,110,0,0,1-6.43-9.31c-.74-1.2-1.64-2.33-1.71-3.77,0-.14,0-.27,0-.4,0-.5,0,.38,0,.18,0-.36,0-.72,0-1.07a27.37,27.37,0,0,1,.63-5.18,22,22,0,0,1,.89-2.86l.13-.31s-.26.52-.1.21.23-.47.36-.69a9.75,9.75,0,0,1,.77-1.23c.15-.21.33-.4.47-.62-.28.43-.38.39,0,.05l.58-.53c.65-.59-.62.35-.05,0a2.58,2.58,0,0,0,.6-.36l-.33.18c-.41.2-.45.23-.12.07,0,0,.31-.12.34-.14.4-.24-.69.23-.68.23s.25-.09.37-.11c1.08-.19-1.18.12,0,0,.19,0,1.13-.08.38-.06s.28,0,.44,0c.57-.11-.54.05-.5-.19,0,.06.61.75.43.44a7.5,7.5,0,0,1,.79,2.29c0,.21.07.41.1.62s0,.83,0,.54,0,.36,0,.47c0,.29-.07.58-.12.86a9.92,9.92,0,0,1-.51,1.71c-.13.32,0,0,0,0-.09.19-.2.38-.3.56a11.26,11.26,0,0,1-.63,1,34.14,34.14,0,0,1-3.45,3.49c-.43.45-.8.94-1.19,1.42-4.41,5.55-8.77,11.29-12,17.6-1.66,3.21-3.35,6.79-3.11,10.49.26,4.05,4.23,5.46,7.72,5.74.43,0,.85,0,1.27,0,.59,0,2.83.15.71-.12l-1.54-.75h0l3.8-4.38c1.7-.4,1.59-.3,1.07-.24s1.51,0,1-.05l-2.49,5.51c.2,0,1-.06.1,0s.29,0,.48,0c.64,0,1.29,0,1.93,0,1.27,0,2.53.09,3.8.15a51.72,51.72,0,0,0,8-.08,20,20,0,0,0,8.94-3,14.9,14.9,0,0,0,5.58-7.16c1.64-4.19,1.82-8.91,1.82-13.35,0-2.11-2.51-2.37-4.19-2.12a8.93,8.93,0,0,0-3.65,1.26c-.64.43-1.82,1.21-1.82,2.08a42.4,42.4,0,0,1-1.26,11.66c-.18.65-.41,1.28-.65,1.9s.2-.34-.14.32c-.15.29-.3.57-.46.84-.28.46-.6.86-.91,1.3s.62-.6,0,0l-.66.6c-.47.43,1-.63.17-.14a5.58,5.58,0,0,0-.58.35s1.21-.56.63-.33l-.31.15c-.23.1-1.2.45-.16.09s-.39.05-.71.15c1.63-.5,1-.18.44-.1q-.45.08-.9.12l-.73.06c-.72.07,1.34,0,.28,0l-1.65,0c-1.11,0-2.22-.07-3.34-.12a49.18,49.18,0,0,0-8.75,0c-1.77.24-4.59,1.1-5.3,3s1.3,2.52,2.81,2.54a12.38,12.38,0,0,0,3-.36c1.72-.4,5.21-2.15,3.81-4.38-.8-1.27-3.57-.86-4.86-.88-.2,0-.41,0-.62,0-.66,0,1,.19.22,0l-.61-.12a2.1,2.1,0,0,0-.24-.06c-.53-.1.16-.23.35.12a4.09,4.09,0,0,0-.84-.41s.55.51.15.1c-.1-.1-.22-.2-.32-.31s-.18-.23-.28-.34c-.3-.32.05-.07.09.18a8.2,8.2,0,0,0-.35-.89,6.45,6.45,0,0,1-.14-.88c0-.12,0-.69,0-.22s0-.23,0-.33a12.11,12.11,0,0,1,.41-2.24,21.43,21.43,0,0,1,.87-2.56c.09-.22.18-.45.28-.67s.32-.72.14-.31.15-.32.2-.43l.39-.79C425,154,429.45,148.1,434,142.4c.1-.14.23-.27.33-.42s-.65.49-.2.25a8,8,0,0,0,1.36-1.18,18.09,18.09,0,0,0,3.71-4.51,11,11,0,0,0,1.31-7.63,8.89,8.89,0,0,0-.85-2.29c-1.2-2.26-3.47-3-5.92-3a19.08,19.08,0,0,0-10.67,2.89c-4.17,2.75-6.29,7.29-7,12.12a34.2,34.2,0,0,0-.26,5.25,6.28,6.28,0,0,0,1.11,3.33q1.6,2.75,3.37,5.39c5.56,8.35,12.31,16.46,20.3,22.63l.38.3c1.8,1.32,4.46,1,6.41.11.87-.41,4.37-2.61,2.54-3.95Z"/><path class="cls-3" d="M436.52,153.31c.72.73,2.23.54,3.18.55h4.89c3.85,0,7.7,0,11.54,0l2.75,0a3.37,3.37,0,0,0,3-1.66c.46-1.07-.6-1.71-1.55-1.71-6,0-12.05.09-18.08.06-.67,0-1.34,0-2,0h-.58c-.43,0-.06-.07.26,0l.84.43h0c-1.41-1.42-5.87.77-4.27,2.37Z"/></svg>